<?xml version="1.0" encoding="UTF-8" standalone="no"?>
<!DOCTYPE svg PUBLIC "-//W3C//DTD SVG 1.1//EN" "http://www.w3.org/Graphics/SVG/1.1/DTD/svg11.dtd">
<svg width="612px" height="792px" version="1.1" xmlns="http://www.w3.org/2000/svg" xmlns:xlink="http://www.w3.org/1999/xlink" xml:space="preserve" xmlns:serif="http://www.serif.com/" style="fill-rule:evenodd;clip-rule:evenodd;">
    <g id="Front-image-cuts" serif:id="Front image cuts" transform="matrix(2.592593,0,0,2.592593,306,396)">
        <g id="Outer-Circle" serif:id="Outer Circle" transform="matrix(0.9,0,0,0.9,2.241392,-31.819507)">
            <path d="M-90.107,63.093L-88.948,62.282C-68.628,91.303 -35.428,108.586 -0,108.586C35.428,108.586 68.628,91.303 88.948,62.282L90.107,63.093C69.522,92.492 35.889,110 -0,110C-35.889,110 -69.522,92.492 -90.107,63.093Z" style="fill:none;stroke:black;stroke-width:1.5px;"/>
        </g>
        <g id="Spoke-6" serif:id="Spoke 6" transform="matrix(0.9,0,0,0.9,2.241392,-32.513792)">
            <path id="path27" d="M4.924,-8.395L-35.434,-77.483C-36.764,-80.393 -39.422,-81.862 -42.429,-80.384" style="fill:none;fill-rule:nonzero;stroke:black;stroke-width:0.77px;"/>
            <path id="line21" d="M-78.05,-42.77L-79.804,-43.731" style="fill:none;fill-rule:nonzero;stroke:black;stroke-width:0.77px;"/>
            <path id="path9" d="M-38.571,-80.384C-54.029,-72.243 -69.654,-58.09 -78.05,-42.77" style="fill:none;fill-rule:nonzero;stroke:black;stroke-width:0.77px;"/>
            <path id="path10" d="M-42.406,-80.516C-58.21,-72.192 -71.22,-59.396 -79.804,-43.731" style="fill:none;fill-rule:nonzero;stroke:black;stroke-width:0.77px;"/>
        </g>
        <g id="Spoke-5" serif:id="Spoke 5" transform="matrix(0.9,0,0,0.9,2.241392,-32.513792)">
            <path id="Spoke5-end" d="M-76.097,46.155L-77.807,47.192" style="fill:none;fill-rule:nonzero;stroke:black;stroke-width:0.77px;"/>
            <path id="path12" d="M-90.925,-3.687C-91.65,14.192 -87.086,31.893 -77.807,47.192" style="fill:none;fill-rule:nonzero;stroke:black;stroke-width:0.77px;"/>
            <path id="path11" d="M-89.143,-7.098C-89.852,10.387 -85.172,31.192 -76.097,46.155" style="fill:none;fill-rule:nonzero;stroke:black;stroke-width:0.77px;"/>
            <path id="Spoke5" d="M-4.664,-8.66L-84.603,-8.179C-87.923,-8.5 -90.628,-7.013 -90.857,-3.67" style="fill:none;fill-rule:nonzero;stroke:black;stroke-width:0.77px;"/>
        </g>
        <g id="Spoke-4" serif:id="Spoke 4" transform="matrix(0.9,0,0,0.9,2.241392,-32.513792)">
            <path id="path1" d="M-50.571,73.473C-35.711,82.89 -15.453,89.396 2.135,88.974" style="fill:none;fill-rule:nonzero;stroke:black;stroke-width:0.77px;"/>
            <path id="path2" d="M-48.709,76.866C-33.515,86.495 -15.8,91.405 2.183,90.974" style="fill:none;fill-rule:nonzero;stroke:black;stroke-width:0.77px;"/>
            <path id="line13" d="M2.135,88.974L2.183,90.974" style="fill:none;fill-rule:nonzero;stroke:black;stroke-width:0.77px;"/>
            <path id="path23" d="M-9.766,-0.11L-49.552,69.311C-51.412,71.913 -51.208,75.03 -48.429,76.902" style="fill:none;fill-rule:nonzero;stroke:black;stroke-width:0.77px;"/>
        </g>
        <g id="Spoke-3" serif:id="Spoke 3" transform="matrix(0.9,0,0,0.9,2.241392,-32.513792)">
            <path id="line15" d="M78.05,42.77L79.804,43.731" style="fill:none;fill-rule:nonzero;stroke:black;stroke-width:0.77px;"/>
            <path id="path4" d="M42.406,80.516C58.21,72.192 71.22,59.396 79.804,43.731" style="fill:none;fill-rule:nonzero;stroke:black;stroke-width:0.77px;"/>
            <path id="path3" d="M38.143,80.33C53.6,72.189 69.654,58.09 78.05,42.77" style="fill:none;fill-rule:nonzero;stroke:black;stroke-width:0.77px;"/>
            <path id="path24" d="M-4.963,8.442L35.433,77.484C36.764,80.393 39.85,81.808 42.857,80.33" style="fill:none;fill-rule:nonzero;stroke:black;stroke-width:0.77px;"/>
        </g>
        <g id="Spoke-2" serif:id="Spoke 2" transform="matrix(0.9,0,0,0.9,2.241392,-32.513792)">
            <path id="path5" d="M88.714,7.044C89.423,-10.426 85.18,-31.163 76.12,-46.117" style="fill:none;fill-rule:nonzero;stroke:black;stroke-width:0.77px;"/>
            <path id="path6" d="M90.925,3.687C91.65,-14.176 87.094,-31.863 77.83,-47.153" style="fill:none;fill-rule:nonzero;stroke:black;stroke-width:0.5px;"/>
            <path id="line17" d="M76.12,-46.117L77.83,-47.154" style="fill:none;fill-rule:nonzero;stroke:black;stroke-width:0.5px;"/>
            <path id="Spoke4" d="M4.723,8.66L84.603,8.179C87.923,8.5 90.628,6.959 90.857,3.616" style="fill:none;fill-rule:nonzero;stroke:black;stroke-width:1px;"/>
        </g>
        <g id="Spoke-1" serif:id="Spoke 1" transform="matrix(0.9,0,0,0.9,2.241392,-32.513792)">
            <path id="line19" d="M-2.135,-88.974L-2.183,-90.974" style="fill:none;fill-rule:nonzero;stroke:black;stroke-width:0.77px;"/>
            <path id="path7" d="M50.571,-73.527C35.703,-82.96 15.468,-89.397 -2.135,-88.974" style="fill:none;fill-rule:nonzero;stroke:black;stroke-width:0.77px;"/>
            <path id="path8" d="M48.747,-76.842C33.544,-86.487 15.816,-91.406 -2.183,-90.974" style="fill:none;fill-rule:nonzero;stroke:black;stroke-width:0.77px;"/>
            <path id="path26" d="M9.799,0.14L49.599,-69.304C51.452,-71.893 51.207,-75.082 48.429,-76.956" style="fill:none;fill-rule:nonzero;stroke:black;stroke-width:0.77px;"/>
        </g>
        <g id="Center-Circle" serif:id="Center Circle" transform="matrix(0.9,0,0,0.9,2.241392,-32.513792)">
            <circle cx="0" cy="0" r="1.5" style="fill:rgb(51,51,51);stroke:black;stroke-width:0.43px;stroke-linejoin:round;stroke-miterlimit:2;"/>
        </g>
    </g>
    <g id="Image-Template" serif:id="Image Template">
        <g id="Slider-Circle" serif:id="Slider Circle" transform="matrix(11.338583,0,0,15.006948,-1723.464567,-3169.800834)">
            <ellipse cx="179.5" cy="232" rx="22.5" ry="17" style="fill:rgb(0,55,255);fill-opacity:0;stroke:rgb(0,55,255);stroke-width:0.08px;stroke-linejoin:round;stroke-miterlimit:1.5;stroke-dasharray:0.075,0.075;"/>
        </g>
        <g id="Image-Circle" serif:id="Image Circle" transform="matrix(9.448819,0,0,12.50579,-1384.251969,-2589.532191)">
            <ellipse cx="179.5" cy="232" rx="22.5" ry="17" style="fill:rgb(0,55,255);fill-opacity:0;stroke:rgb(0,55,255);stroke-width:0.09px;stroke-linejoin:round;stroke-miterlimit:1.5;stroke-dasharray:0.09,0.09;"/>
        </g>
        <g id="minimum-border" serif:id="minimum border" transform="matrix(1.148364,0,0,1.090248,-68.871615,-50.151423)">
            <rect x="97" y="85" width="469" height="546" style="fill:rgb(0,55,255);fill-opacity:0;stroke:rgb(0,55,255);stroke-width:0.89px;stroke-linejoin:round;stroke-miterlimit:1.5;stroke-dasharray:0.893,0.893;"/>
        </g>
    </g>
</svg>
