<?xml version="1.0" encoding="UTF-8" standalone="no"?>
<!DOCTYPE svg PUBLIC "-//W3C//DTD SVG 1.1//EN" "http://www.w3.org/Graphics/SVG/1.1/DTD/svg11.dtd">
<svg width="700px" height="700px" version="1.1" xmlns="http://www.w3.org/2000/svg" xmlns:xlink="http://www.w3.org/1999/xlink" xml:space="preserve" xmlns:serif="http://www.serif.com/" style="fill-rule:evenodd;clip-rule:evenodd;">
    <g id="Side-A" serif:id="Side A" transform="matrix(0,2.592593,-2.592593,0,350,350)">
        <g transform="matrix(0.9,0,-0,0.9,-14.730034,14.730034)">
            <g id="Spoke6" transform="matrix(0,-1,1,0,-0.000001,-0.000006)">
                <path id="path26" d="M-9.799,0.14L-49.599,-69.304C-51.452,-71.893 -51.207,-75.003 -48.429,-76.876" style="fill:none;fill-rule:nonzero;stroke:black;stroke-width:0.43px;"/>
                <path id="path7" d="M-50.571,-73.019C-35.703,-82.452 -15.468,-89.397 2.135,-88.974" style="fill:none;fill-rule:nonzero;stroke:black;stroke-width:0.43px;"/>
                <path id="path8" d="M-48.747,-76.842C-33.544,-86.487 -15.816,-91.406 2.183,-90.974" style="fill:none;fill-rule:nonzero;stroke:black;stroke-width:0.43px;"/>
                <path id="line19" d="M2.135,-88.974L2.183,-90.974" style="fill:none;fill-rule:nonzero;stroke:black;stroke-width:0.43px;"/>
                <path id="line6" d="M0,0L-10,0" style="fill:none;fill-rule:nonzero;stroke:black;stroke-width:0.43px;"/>
            </g>
            <g id="Spoke5" transform="matrix(0,-1,1,0,-0.000001,-0.000006)">
                <path id="path5" d="M-88.714,7.124C-89.423,-10.347 -85.18,-31.163 -76.12,-46.117" style="fill:none;fill-rule:nonzero;stroke:black;stroke-width:0.43px;"/>
                <path id="path6" d="M-90.925,3.687C-91.65,-14.176 -87.094,-31.863 -77.83,-47.153" style="fill:none;fill-rule:nonzero;stroke:black;stroke-width:0.43px;"/>
                <path id="line17" d="M-76.12,-46.117L-77.83,-47.154" style="fill:none;fill-rule:nonzero;stroke:black;stroke-width:0.43px;"/>
                <path id="path25" d="M-4.723,8.66L-84.603,8.179C-87.923,8.5 -90.628,7.038 -90.857,3.695" style="fill:none;fill-rule:nonzero;stroke:black;stroke-width:0.43px;"/>
                <path id="line5" d="M0,0L-5,8.66" style="fill:none;fill-rule:nonzero;stroke:black;stroke-width:0.43px;"/>
            </g>
            <g id="Spoke4" transform="matrix(0,-1,1,0,-0.000001,-0.000006)">
                <path id="path3" d="M-38.143,80.409C-53.6,72.268 -69.654,58.09 -78.05,42.77" style="fill:none;fill-rule:nonzero;stroke:black;stroke-width:0.43px;"/>
                <path id="path4" d="M-42.406,80.516C-58.21,72.192 -71.22,59.396 -79.804,43.731" style="fill:none;fill-rule:nonzero;stroke:black;stroke-width:0.43px;"/>
                <path id="line15" d="M-78.05,42.77L-79.804,43.731" style="fill:none;fill-rule:nonzero;stroke:black;stroke-width:0.43px;"/>
                <path id="path24" d="M4.963,8.442L-35.433,77.484C-36.764,80.393 -39.422,81.887 -42.429,80.409" style="fill:none;fill-rule:nonzero;stroke:black;stroke-width:0.43px;"/>
                <path id="line4" d="M0,0L5,8.66" style="fill:none;fill-rule:nonzero;stroke:black;stroke-width:0.43px;"/>
            </g>
            <g id="Spoke3" transform="matrix(0,-1,1,0,-0.000001,-0.000006)">
                <path id="path1" d="M50.571,73.552C35.711,82.969 15.453,89.396 -2.135,88.974" style="fill:none;fill-rule:nonzero;stroke:black;stroke-width:0.43px;"/>
                <path id="path2" d="M48.709,76.866C33.515,86.495 15.8,91.405 -2.183,90.974" style="fill:none;fill-rule:nonzero;stroke:black;stroke-width:0.43px;"/>
                <path id="line13" d="M-2.135,88.974L-2.183,90.974" style="fill:none;fill-rule:nonzero;stroke:black;stroke-width:0.43px;"/>
                <path id="path23" d="M9.766,-0.11L49.552,69.311C51.412,71.913 51.208,75.109 48.429,76.981" style="fill:none;fill-rule:nonzero;stroke:black;stroke-width:0.43px;"/>
                <path id="line3" d="M0,0L10,0" style="fill:none;fill-rule:nonzero;stroke:black;stroke-width:0.43px;"/>
            </g>
            <g id="spoke2" transform="matrix(0,-1,1,0,-0.000001,-0.000006)">
                <path id="path11" d="M88.714,-6.591C89.423,10.895 85.172,31.192 76.097,46.155" style="fill:none;fill-rule:nonzero;stroke:black;stroke-width:0.43px;"/>
                <path id="path12" d="M90.925,-3.687C91.65,14.192 87.086,31.893 77.807,47.192" style="fill:none;fill-rule:nonzero;stroke:black;stroke-width:0.43px;"/>
                <path id="line23" d="M76.097,46.155L77.807,47.192" style="fill:none;fill-rule:nonzero;stroke:black;stroke-width:0.43px;"/>
                <g id="path28" transform="matrix(1,0,0,1,0,0.342857)">
                    <path d="M4.664,-8.66L84.603,-8.179C87.923,-8.5 90.628,-7.276 90.857,-3.933" style="fill:none;fill-rule:nonzero;stroke:black;stroke-width:0.43px;"/>
                </g>
                <path id="line8" d="M0,0L5,-8.66" style="fill:none;fill-rule:nonzero;stroke:black;stroke-width:0.43px;"/>
            </g>
            <g id="Spoke1" transform="matrix(0,-1,1,0,-0.000001,-0.000006)">
                <path id="path9" d="M37.714,-80.305C53.171,-72.164 69.654,-58.09 78.05,-42.77" style="fill:none;fill-rule:nonzero;stroke:black;stroke-width:0.43px;"/>
                <path id="path10" d="M42.406,-80.516C58.21,-72.192 71.22,-59.396 79.804,-43.731" style="fill:none;fill-rule:nonzero;stroke:black;stroke-width:0.43px;"/>
                <path id="line21" d="M78.05,-42.77L79.804,-43.731" style="fill:none;fill-rule:nonzero;stroke:black;stroke-width:0.43px;"/>
                <path id="path27" d="M-4.924,-8.395L35.434,-77.483C36.764,-80.393 39.422,-81.783 42.429,-80.305" style="fill:none;fill-rule:nonzero;stroke:black;stroke-width:0.43px;"/>
                <path id="line7" d="M0,0L-5,-8.66" style="fill:none;fill-rule:nonzero;stroke:black;stroke-width:0.43px;"/>
            </g>
            <circle id="Inner-Circle" serif:id="Inner Circle" cx="0" cy="0" r="1.5" style="fill:rgb(51,51,51);stroke:black;stroke-width:0.43px;stroke-linejoin:round;stroke-miterlimit:2;"/>
            <g id="tab" transform="matrix(1.111111,-0,0,1.111111,16.366704,-16.366704)">
                <g transform="matrix(0,-3.452726,1.28631,0,-311.224443,1107.517909)">
                    <path d="M338.332,279.673C342.639,265.896 345,248.485 345,230.5C345,188.279 332.23,154 316.5,154C300.77,154 288,188.279 288,230.5C288,272.721 300.77,307 316.5,307C323.2,307 329.687,300.663 334.819,289.102C329.687,300.663 323.2,307 316.5,307C300.77,307 288,272.721 288,230.5C288,188.279 300.77,154 316.5,154C332.23,154 345,188.279 345,230.5C345,248.485 342.639,265.896 338.332,279.673Z" style="fill:none;stroke:black;stroke-width:0.15px;stroke-linecap:round;stroke-linejoin:round;stroke-miterlimit:1.5;"/>
                </g>
                <g transform="matrix(0,-0.396686,0.385714,0,-135,140.142195)">
                    <path d="M475.798,507.243L510.802,540L539.972,509L505.94,476" style="fill:none;stroke:black;stroke-width:0.99px;stroke-linecap:round;stroke-linejoin:round;stroke-miterlimit:1.5;"/>
                </g>
            </g>
        </g>
    </g>
</svg>
