<?xml version="1.0" encoding="UTF-8" standalone="no"?>
<!DOCTYPE svg PUBLIC "-//W3C//DTD SVG 1.1//EN" "http://www.w3.org/Graphics/SVG/1.1/DTD/svg11.dtd">
<svg width="700px" height="700px" version="1.1" xmlns="http://www.w3.org/2000/svg" xmlns:xlink="http://www.w3.org/1999/xlink" xml:space="preserve" xmlns:serif="http://www.serif.com/" style="fill-rule:evenodd;clip-rule:evenodd;">
    <g id="Back-Side" serif:id="Back Side">
        <g>
            <g id="Spoke6">
                <path id="path26" d="M288.947,312.137L196.079,150.101C191.756,144.06 192.329,136.804 198.811,132.433" style="fill:none;fill-rule:nonzero;stroke:black;stroke-width:1px;"/>
                <path id="path7" d="M193.811,141.433C228.505,119.424 275.719,103.218 316.794,104.204" style="fill:none;fill-rule:nonzero;stroke:black;stroke-width:1px;"/>
                <path id="path8" d="M198.067,132.513C233.541,110.009 274.908,98.531 316.906,99.539" style="fill:none;fill-rule:nonzero;stroke:black;stroke-width:1px;"/>
                <path id="line19" d="M316.794,104.204L316.906,99.539" style="fill:none;fill-rule:nonzero;stroke:black;stroke-width:1px;"/>
                <path id="line6" d="M311.811,311.811L288.478,311.811" style="fill:none;fill-rule:nonzero;stroke:black;stroke-width:1px;"/>
            </g>
            <g id="Spoke5">
                <path id="path5" d="M104.811,328.433C103.158,287.669 113.058,239.098 134.198,204.204" style="fill:none;fill-rule:nonzero;stroke:black;stroke-width:1px;"/>
                <path id="path6" d="M99.652,320.413C97.962,278.733 108.592,237.464 130.207,201.786" style="fill:none;fill-rule:nonzero;stroke:black;stroke-width:1px;"/>
                <path id="line17" d="M134.198,204.204L130.207,201.786" style="fill:none;fill-rule:nonzero;stroke:black;stroke-width:1px;"/>
                <path id="path25" d="M300.791,332.018L114.403,330.895C106.658,331.644 100.346,328.233 99.811,320.433" style="fill:none;fill-rule:nonzero;stroke:black;stroke-width:1px;"/>
                <path id="line5" d="M311.811,311.811L300.144,332.018" style="fill:none;fill-rule:nonzero;stroke:black;stroke-width:1px;"/>
            </g>
            <g id="Spoke4">
                <path id="path3" d="M222.811,499.433C186.744,480.438 149.284,447.355 129.695,411.607" style="fill:none;fill-rule:nonzero;stroke:black;stroke-width:1px;"/>
                <path id="path4" d="M212.865,499.681C175.987,480.258 145.632,450.401 125.602,413.85" style="fill:none;fill-rule:nonzero;stroke:black;stroke-width:1px;"/>
                <path id="line15" d="M129.695,411.607L125.602,413.85" style="fill:none;fill-rule:nonzero;stroke:black;stroke-width:1px;"/>
                <path id="path24" d="M323.391,331.509L229.133,492.606C226.029,499.395 219.827,502.882 212.811,499.433" style="fill:none;fill-rule:nonzero;stroke:black;stroke-width:1px;"/>
                <path id="line4" d="M311.811,311.811L323.478,332.018" style="fill:none;fill-rule:nonzero;stroke:black;stroke-width:1px;"/>
            </g>
            <g id="Spoke3">
                <path id="path1" d="M430,483C395.325,504.973 347.868,520.403 306.829,519.418" style="fill:none;fill-rule:nonzero;stroke:black;stroke-width:1px;"/>
                <path id="path2" d="M425.466,491.165C390.012,513.633 348.679,525.09 306.717,524.083" style="fill:none;fill-rule:nonzero;stroke:black;stroke-width:1px;"/>
                <path id="line13" d="M306.829,519.418L306.717,524.083" style="fill:none;fill-rule:nonzero;stroke:black;stroke-width:1px;"/>
                <path id="path23" d="M334.598,311.554L427.433,473.537C431.773,479.608 431.295,487.066 424.811,491.433" style="fill:none;fill-rule:nonzero;stroke:black;stroke-width:1px;"/>
                <path id="line3" d="M311.811,311.811L335.144,311.811" style="fill:none;fill-rule:nonzero;stroke:black;stroke-width:1px;"/>
            </g>
            <g id="spoke2">
                <path id="path11" d="M518.811,296.433C520.465,337.233 510.546,384.593 489.37,419.506" style="fill:none;fill-rule:nonzero;stroke:black;stroke-width:1px;"/>
                <path id="path12" d="M523.97,303.209C525.661,344.925 515.012,386.228 493.36,421.926" style="fill:none;fill-rule:nonzero;stroke:black;stroke-width:1px;"/>
                <path id="line23" d="M489,420L494,422" style="fill:none;fill-rule:nonzero;stroke:black;stroke-width:1px;"/>
                <path id="path28" d="M322.694,292.404L509.219,293.527C516.964,292.778 523.276,295.633 523.811,303.433" style="fill:none;fill-rule:nonzero;stroke:black;stroke-width:1px;"/>
                <path id="line8" d="M311.811,311.811L323.478,291.604" style="fill:none;fill-rule:nonzero;stroke:black;stroke-width:1px;"/>
            </g>
            <g id="Spoke1">
                <path id="path9" d="M399.811,124.433C435.878,143.429 474.338,176.267 493.927,212.015" style="fill:none;fill-rule:nonzero;stroke:black;stroke-width:1px;"/>
                <path id="path10" d="M410.758,123.942C447.635,143.364 477.99,173.221 498.02,209.772" style="fill:none;fill-rule:nonzero;stroke:black;stroke-width:1px;"/>
                <path id="line21" d="M493.927,212.015L498.02,209.772" style="fill:none;fill-rule:nonzero;stroke:black;stroke-width:1px;"/>
                <path id="path27" d="M300.321,292.222L394.489,131.016C397.594,124.228 403.795,120.984 410.811,124.433" style="fill:none;fill-rule:nonzero;stroke:black;stroke-width:1px;"/>
                <path id="line7" d="M311.811,311.811L300.144,291.604" style="fill:none;fill-rule:nonzero;stroke:black;stroke-width:1px;"/>
            </g>
            <path id="Inner-Circle" serif:id="Inner Circle" d="M315.311,311.811C315.311,313.743 313.743,315.311 311.811,315.311C309.879,315.311 308.311,313.743 308.311,311.811C308.311,309.879 309.879,308.311 311.811,308.311C313.743,308.311 315.311,309.879 315.311,311.811Z" style="fill:rgb(51,51,51);fill-opacity:0.74;stroke:black;stroke-width:1px;stroke-linejoin:round;stroke-miterlimit:2;"/>
            <g id="tab">
                <path d="M507.041,476.038C545.721,430.057 566.929,371.898 566.929,311.811C566.929,171.008 452.615,56.693 311.811,56.693C171.008,56.693 56.693,171.008 56.693,311.811C56.693,452.615 171.008,566.929 311.811,566.929C371.898,566.929 430.057,545.721 476.038,507.041C430.057,545.721 371.898,566.929 311.811,566.929C171.008,566.929 56.693,452.615 56.693,311.811C56.693,171.008 171.008,56.693 311.811,56.693C452.615,56.693 566.929,171.008 566.929,311.811C566.929,371.898 545.721,430.057 507.041,476.038Z" style="fill:none;stroke:black;stroke-width:1px;stroke-linecap:round;stroke-linejoin:round;stroke-miterlimit:1.5;"/>
                <path d="M476,507L512,540L542,509L507,476" style="fill:none;stroke:black;stroke-width:1px;stroke-linecap:round;stroke-linejoin:round;stroke-miterlimit:1.5;"/>
            </g>
        </g>
    </g>
</svg>
